<svg width="21" height="25" viewBox="0 0 21 25" fill="none" xmlns="http://www.w3.org/2000/svg">
<mask id="mask0_88_1231" style="mask-type:luminance" maskUnits="userSpaceOnUse" x="0" y="0" width="21" height="25">
<path d="M21 0H0V25H21V0Z" fill="white"/>
</mask>
<g mask="url(#mask0_88_1231)">
<path d="M17.9133 5.75C17.9133 8.8475 15.0213 12.5 10.6442 12.5H6.42904L6.22157 13.79L5.23735 20H0L3.15253 0H11.6386C14.4976 0 16.7443 1.575 17.5742 3.76C17.812 4.3975 17.9259 5.0725 17.9133 5.75Z" fill="#002991"/>
<path d="M20.933 11.5C20.3561 14.9675 17.3175 17.5075 13.7626 17.5H10.8353L9.61577 25H4.40625L5.24119 20L6.22541 13.79L6.43288 12.5H10.6481C15.015 12.5 17.9146 8.8475 17.9146 5.75C20.0652 6.8475 21.3176 9.0625 20.933 11.5Z" fill="#60CDFF"/>
<path d="M17.9129 5.75C17.0122 5.285 15.9167 5 14.7275 5H7.6204L6.42871 12.5H10.6439C15.0134 12.5 17.9129 8.8475 17.9129 5.75Z" fill="#008CFF"/>
</g>
</svg>
