<svg width="65" height="65" viewBox="0 0 65 65" fill="none" xmlns="http://www.w3.org/2000/svg">
<path d="M32.5 49.1667V62.5M19.1667 62.5H45.8333M13.1667 49.1667H51.8333C55.567 49.1667 57.434 49.1667 58.86 48.44C60.1143 47.801 61.1343 46.781 61.7733 45.5267C62.5 44.1007 62.5 42.2337 62.5 38.5V13.1667C62.5 9.433 62.5 7.56613 61.7733 6.14007C61.1343 4.88563 60.1143 3.86577 58.86 3.22663C57.434 2.5 55.567 2.5 51.8333 2.5H13.1667C9.433 2.5 7.56613 2.5 6.14007 3.22663C4.88563 3.86577 3.86577 4.88563 3.22663 6.14007C2.5 7.56613 2.5 9.43297 2.5 13.1667V38.5C2.5 42.2337 2.5 44.1007 3.22663 45.5267C3.86577 46.781 4.88563 47.801 6.14007 48.44C7.56613 49.1667 9.43297 49.1667 13.1667 49.1667Z" stroke="#E2E8F0" stroke-width="5" stroke-linecap="round"/>
</svg>
