<svg width="58" height="65" viewBox="0 0 58 65" fill="none" xmlns="http://www.w3.org/2000/svg">
<path d="M44.1845 12.5C41.6286 6.61367 35.7916 2.5 29 2.5C19.8528 2.5 12.4375 9.96193 12.4375 19.1667V25.9293M12.4375 25.9293C13.9991 25.8333 15.9242 25.8333 18.4 25.8333H39.6C45.1657 25.8333 47.9482 25.8333 50.0741 26.9233C51.944 27.882 53.4641 29.4117 54.4168 31.2933C55.5 33.4327 55.5 36.2327 55.5 41.8333V46.5C55.5 52.1007 55.5 54.9007 54.4168 57.04C53.4641 58.9217 51.944 60.4513 50.0741 61.41C47.9482 62.5 45.1657 62.5 39.6 62.5H18.4C12.8345 62.5 10.0517 62.5 7.92597 61.41C6.0561 60.4513 4.53586 58.9217 3.58312 57.04C2.5 54.9007 2.5 52.1007 2.5 46.5V41.8333C2.5 36.2327 2.5 33.4327 3.58312 31.2933C4.53586 29.4117 6.0561 27.882 7.92597 26.9233C9.10609 26.3183 10.4887 26.049 12.4375 25.9293Z" stroke="#E2E8F0" stroke-width="5" stroke-linecap="round" stroke-linejoin="round"/>
</svg>
