<svg width="22" height="25" viewBox="0 0 22 25" fill="none" xmlns="http://www.w3.org/2000/svg">
<path d="M6.38668 12.4971L3.07554 14.3772L0 19.6229L12.5378 12.4971H6.38668Z" fill="#8F4794"/>
<path d="M15.8486 7.12598L12.5375 9.00615L9.46191 14.2518L21.9997 7.12598H15.8486Z" fill="#E40646"/>
<path d="M12.5375 5.24568L9.46191 0V10.7483V14.2517V25L12.5375 19.7543V5.24568Z" fill="#F9B429"/>
<path d="M9.46191 0L12.5375 5.24568L15.8486 7.12585H21.9997L9.46191 0Z" fill="#EF8019"/>
<path d="M9.46191 10.748V24.9997L12.5375 19.7541V15.9937L9.46191 10.748Z" fill="#78B72A"/>
<path d="M15.8486 17.874L12.5375 19.7542L9.46191 24.9999L21.9997 17.874H15.8486Z" fill="#00853F"/>
<path d="M0 5.37695V19.6224L3.07554 14.383V10.6164L0 5.37695Z" fill="#5B57A2"/>
<path d="M9.46223 10.748L9.4686 10.7542L0 5.37695L3.07554 10.6164L15.8489 17.8738H22L9.46223 10.748Z" fill="#0698D6"/>
</svg>
