<svg width="73" height="65" viewBox="0 0 73 65" fill="none" xmlns="http://www.w3.org/2000/svg">
<path d="M59.1667 13.75H59.2044M47.8333 13.75H47.8711M59.1667 51.25H59.2044M47.8333 51.25H47.8711M13.8333 25H59.1667C62.6872 25 64.4472 25 65.836 24.4291C67.6871 23.6679 69.1581 22.2078 69.925 20.3701C70.5 18.9918 70.5 17.2445 70.5 13.75C70.5 10.2555 70.5 8.50818 69.925 7.12986C69.1581 5.29218 67.6871 3.83211 65.836 3.0709C64.4472 2.5 62.6872 2.5 59.1667 2.5H13.8333C10.3129 2.5 8.55268 2.5 7.16416 3.0709C5.31286 3.83211 3.84198 5.29218 3.07513 7.12986C2.5 8.50818 2.5 10.2555 2.5 13.75C2.5 17.2445 2.5 18.9918 3.07513 20.3701C3.84198 22.2078 5.31286 23.6679 7.16416 24.4291C8.55268 25 10.3129 25 13.8333 25ZM13.8333 62.5H59.1667C62.6872 62.5 64.4472 62.5 65.836 61.9292C67.6871 61.168 69.1581 59.7077 69.925 57.8702C70.5 56.4917 70.5 54.7446 70.5 51.25C70.5 47.7554 70.5 46.0083 69.925 44.6298C69.1581 42.7923 67.6871 41.332 65.836 40.5707C64.4472 40 62.6872 40 59.1667 40H13.8333C10.3129 40 8.55268 40 7.16416 40.5707C5.31286 41.332 3.84198 42.7923 3.07513 44.6298C2.5 46.0083 2.5 47.7554 2.5 51.25C2.5 54.7446 2.5 56.4917 3.07513 57.8702C3.84198 59.7077 5.31286 61.168 7.16416 61.9292C8.55268 62.5 10.3129 62.5 13.8333 62.5Z" stroke="#E2E8F0" stroke-width="5" stroke-linecap="round" stroke-linejoin="round"/>
</svg>
