<svg width="91" height="65" viewBox="0 0 91 65" fill="none" xmlns="http://www.w3.org/2000/svg">
<path d="M32.4823 58.4375C31.3814 59.4648 30.5293 60.1524 29.6586 60.655C25.3962 63.115 20.1447 63.115 15.8823 60.655C14.3116 59.7485 12.8018 58.2392 9.78206 55.2211C6.76235 52.2025 5.25247 50.6932 4.34567 49.1228C1.88478 44.8621 1.88478 39.6127 4.34567 35.352C5.25247 33.7821 6.76235 32.2728 9.78206 29.2542L22.7704 16.2709C25.7902 13.2524 27.3 11.7431 28.8707 10.8366C33.1331 8.37671 38.3846 8.37671 42.647 10.8366C44.2175 11.7431 45.7274 13.2524 48.7471 16.2709C51.7669 19.2894 53.2768 20.7987 54.1837 22.3688C56.6446 26.6295 56.6446 31.8789 54.1837 36.1396C53.6809 37.01 52.993 37.8619 51.9648 38.9622M39.0353 26.0378C38.0072 27.1381 37.3193 27.99 36.8164 28.8604C34.3557 33.1211 34.3557 38.3705 36.8164 42.6312C37.7234 44.2016 39.2332 45.7109 42.253 48.729C45.2728 51.7476 46.7826 53.2569 48.3531 54.1634C52.6155 56.6234 57.867 56.6234 62.1294 54.1634C63.7003 53.2569 65.2102 51.7476 68.23 48.729L81.2182 35.7458C84.238 32.7272 85.7479 31.2179 86.6543 29.6481C89.1152 25.3873 89.1152 20.1378 86.6543 15.8771C85.7479 14.307 84.238 12.7978 81.2182 9.77922C78.1985 6.76069 76.6886 5.25145 75.1181 4.34496C70.8553 1.88501 65.6042 1.88501 61.3418 4.34496C60.4707 4.8475 59.6189 5.53526 58.5177 6.56276" stroke="#E2E8F0" stroke-width="5" stroke-linecap="round"/>
</svg>
